<svg width="390" height="101" viewBox="0 0 390 101" fill="none" xmlns="http://www.w3.org/2000/svg">
<path fill-rule="evenodd" clip-rule="evenodd" d="M26.729 1.75049L46.1884 12.9823V27.3922L61.3597 36.149L75.1942 28.1638L94.6537 39.3957V61.8593L75.1942 73.0912L61.0433 64.9234L46.1884 73.4975V88.2727L26.729 99.5045L7.26953 88.2727V65.809L26.729 54.5772L41.5358 63.1235L55.7348 54.928V45.9369L41.8737 37.9364L26.729 46.6778L7.26953 35.446V12.9823L26.729 1.75049Z" fill="black"/>
<path d="M304.766 7.36865H324.741C329.616 7.36865 333.568 11.3207 333.568 16.1958V80.4872H351.422V90.5962H304.766V80.4872H322.718V17.4777H304.766V7.36865Z" fill="black"/>
<path d="M263.538 91.8572C258.569 91.8572 254.264 90.6185 250.62 88.1412C247.043 85.5988 244.228 82.0132 242.174 77.3846C240.187 72.756 239.193 67.2799 239.193 60.9563C239.193 54.6327 240.187 49.1566 242.174 44.5279C244.228 39.8993 247.043 36.3464 250.62 33.8691C254.264 31.3266 258.569 30.0554 263.538 30.0554C266.784 30.0554 269.731 30.6747 272.381 31.9133C275.031 33.152 276.985 34.847 278.244 36.9983H281.225V7.36865H292.155V90.2926H281.225V84.9142H278.244C276.985 87.0004 275.031 88.6954 272.381 89.9992C269.731 91.2378 266.784 91.8572 263.538 91.8572ZM265.823 81.785C270.858 81.785 274.733 79.9597 277.449 76.3089C280.231 72.6582 281.622 67.5406 281.622 60.9563C281.622 54.3719 280.231 49.2544 277.449 45.6036C274.733 41.9529 270.858 40.1275 265.823 40.1275C260.855 40.1275 256.98 41.9529 254.197 45.6036C251.481 49.2544 250.123 54.3719 250.123 60.9563C250.123 67.5406 251.481 72.6582 254.197 76.3089C256.98 79.9597 260.855 81.785 265.823 81.785Z" fill="black"/>
<path d="M172.969 90.5989L161.01 31.3308H171.897L181.661 82.6965H184.019L191.029 31.3308H208.81L214.65 82.6965H217.007L226.771 31.3308H236.669L226.078 90.5989H205.858L200.018 38.9369H199.029L193.387 90.5989H172.969Z" fill="black"/>
<path d="M154.185 101H145.841C143.638 101 141.597 100.621 139.718 99.8621C137.876 99.1397 136.287 98.0921 134.95 96.7194C133.65 95.3467 132.62 93.7393 131.862 91.897C131.139 90.0547 130.778 88.0138 130.778 85.7741V65.2136C130.778 62.2515 129.929 60.337 128.232 59.47C126.534 58.5669 126.527 58.1154 123.168 58.1154V42.993C126.527 42.993 126.534 42.5776 128.232 41.7467C129.929 40.8798 130.778 38.9291 130.778 35.8948V15.3342C130.778 13.0946 131.139 11.0536 131.862 9.21137C132.62 7.3691 133.65 5.76162 134.95 4.38895C136.287 3.01627 137.876 1.95064 139.718 1.19206C141.597 0.397353 143.638 0 145.841 0H154.185V10.0783C149.291 10.0783 144.615 10.0783 140.856 10.0783V38.4168C140.856 41.8124 139.809 44.5758 137.714 46.7071C135.655 48.8022 133.307 50.1026 130.67 50.6084C132.006 50.8251 133.271 51.2586 134.463 51.9088C135.691 52.5229 136.756 53.3718 137.659 54.4555C138.599 55.503 139.357 56.7312 139.935 58.14C140.549 59.5488 140.856 61.066 140.856 62.6915V90.9758C149.659 90.9758 149.345 90.9758 154.185 90.9758V101Z" fill="black"/>
<path d="M358.984 101H367.328C369.531 101 371.572 100.621 373.451 99.8621C375.293 99.1397 376.882 98.0921 378.219 96.7194C379.519 95.3467 380.548 93.7393 381.307 91.897C382.029 90.0547 382.391 88.0138 382.391 85.7741V65.2136C382.391 62.2515 383.24 60.337 384.937 59.47C386.635 58.5669 386.642 58.1154 390.001 58.1154V42.993C386.642 42.993 386.635 42.5776 384.937 41.7467C383.24 40.8798 382.391 38.9291 382.391 35.8948V15.3342C382.391 13.0946 382.029 11.0536 381.307 9.21137C380.548 7.3691 379.519 5.76162 378.219 4.38895C376.882 3.01627 375.293 1.95064 373.451 1.19206C371.572 0.397353 369.531 0 367.328 0H358.984V10.0783C363.877 10.0783 368.554 10.0783 372.313 10.0783V38.4168C372.313 41.8124 373.36 44.5758 375.455 46.7071C377.514 48.8022 379.862 50.1026 382.499 50.6084C381.163 50.8251 379.898 51.2586 378.706 51.9088C377.478 52.5229 376.413 53.3718 375.509 54.4555C374.57 55.503 373.812 56.7312 373.234 58.14C372.62 59.5488 372.313 61.066 372.313 62.6915V90.9758C363.51 90.9758 363.824 90.9758 358.984 90.9758V101Z" fill="black"/>
</svg>
