<svg id="Layer_1" data-name="Layer 1" xmlns="http://www.w3.org/2000/svg" viewBox="0 0 54.69 79.3"><defs><style>.cls-1{fill:#0e9bbf;}.cls-2{fill:none;}</style></defs><title>wdl-icon</title><polygon class="cls-1" points="12.9 49.3 0 56.8 0 71.8 12.9 79.3 25.9 71.8 25.9 56.8 12.9 49.3"/><polygon class="cls-1" points="35.9 51.24 28.71 55.39 28.71 62.03 41.7 54.59 35.9 51.24"/><polygon class="cls-1" points="41.7 24.59 28.71 32.09 28.71 47.09 41.7 54.59 54.69 47.09 54.69 32.09 41.7 24.59"/><polygon class="cls-1" points="33.09 26.65 25.9 22.5 25.9 15.86 38.89 23.3 33.09 26.65"/><polygon class="cls-1" points="12.9 0 0 7.5 0 22.5 12.9 30 25.9 22.5 25.9 7.5 12.9 0"/><line class="cls-2" x1="28.71" y1="32.09" x2="28.71" y2="47.09"/></svg>