<?xml version="1.0" encoding="utf-8"?>
<!-- Generator: Adobe Illustrator 24.0.0, SVG Export Plug-In . SVG Version: 6.00 Build 0)  -->
<svg version="1.1" id="Layer_1" xmlns="http://www.w3.org/2000/svg" xmlns:xlink="http://www.w3.org/1999/xlink" x="0px" y="0px"
	 viewBox="0 0 300 120" style="enable-background:new 0 0 300 120;" xml:space="preserve">
<style type="text/css">
	.st0{fill:#009ABF;}
	.st1{fill:none;}
	.st2{fill:#333333;}
	.st3{font-family:'Courier';}
	.st4{font-size:88px;}
</style>
<polygon class="st0" points="26.2,20.2 13.3,27.7 13.3,42.7 26.2,50.2 39.2,42.7 39.2,27.7 "/>
<polygon class="st0" points="55,43.4 42,50.9 42,65.9 55,73.4 68,65.9 68,50.9 "/>
<polygon class="st0" points="26.2,67.3 13.3,74.8 13.3,89.8 26.2,97.3 39.2,89.8 39.2,74.8 "/>
<g>
	<g>
		<path class="st0" d="M90.2,90.9c0-7.4,0.9-12.8,0.9-19.6c0-4-1.9-7.9-8.8-8V58c6.9-0.1,8.8-4,8.8-7.9c0-7-0.9-12.4-0.9-19.8
			c0-10.6,3.8-13.6,11.9-13.6h4.6v4.8H104c-5.5,0-7,2.7-7,9.3c0,6.2,0.5,11.5,0.5,18.5c0,6.6-1.7,9.9-6.1,11.1v0.4
			c4.4,1.2,6.1,4.6,6.1,11.1c0,7-0.5,12.3-0.5,18.5c0,6.6,1.4,9.3,7,9.3h2.7v4.8h-4.6C94.2,104.5,90.2,101.4,90.2,90.9z"/>
	</g>
</g>
<g>
	<g>
		<path class="st0" d="M262.4,99.7h2.7c5.5,0,7-2.7,7-9.3c0-6.2-0.5-11.5-0.5-18.5c0-6.5,1.7-9.9,6.1-11.1v-0.4
			c-4.4-1.2-6.1-4.5-6.1-11.1c0-6.9,0.5-12.3,0.5-18.5c0-6.6-1.4-9.3-7-9.3h-2.7v-4.8h4.6c8.1,0,11.9,3,11.9,13.6
			c0,7.4-0.9,12.8-0.9,19.8c0,3.9,1.9,7.8,8.8,7.9v5.3c-6.9,0.1-8.8,4-8.8,8c0,6.8,0.9,12.2,0.9,19.6c0,10.6-3.8,13.6-11.9,13.6
			h-4.6V99.7z"/>
	</g>
</g>
<rect x="108.2" y="31" class="st1" width="160.2" height="76.9"/>
<text transform="matrix(1 0 0 1 108.1591 87.2624)" class="st2 st3 st4">wdl</text>
<polygon class="st0" points="44.8,71.1 42,73.1 42,82.1 52.1,75.3 "/>
<polygon class="st0" points="52.1,42 42,35.2 42,44.2 44.8,46.3 "/>
</svg>
