<svg id="Layer_1" data-name="Layer 1" xmlns="http://www.w3.org/2000/svg" viewBox="0 0 273.5 106.57"><defs><style>.cls-1{fill:#009abf;}.cls-2{fill:none;}.cls-3{isolation:isolate;font-size:88px;fill:#333;font-family:Courier;}.cls-4{fill:#0a99be;}</style></defs><title>wdl-logo</title><path class="cls-1" d="M90.2,90.9c0-7.4.9-12.8.9-19.6,0-4-1.9-7.9-8.8-8V58c6.9-.1,8.8-4,8.8-7.9,0-7-.9-12.4-.9-19.8,0-10.6,3.8-13.6,11.9-13.6h4.6v4.8H104c-5.5,0-7,2.7-7,9.3,0,6.2.5,11.5.5,18.5,0,6.6-1.7,9.9-6.1,11.1v.4c4.4,1.2,6.1,4.6,6.1,11.1,0,7-.5,12.3-.5,18.5,0,6.6,1.4,9.3,7,9.3h2.7v4.8h-4.6C94.2,104.5,90.2,101.4,90.2,90.9Z" transform="translate(-13.3 -16.7)"/><path class="cls-1" d="M262.4,99.7h2.7c5.5,0,7-2.7,7-9.3,0-6.2-.5-11.5-.5-18.5,0-6.5,1.7-9.9,6.1-11.1v-.4c-4.4-1.2-6.1-4.5-6.1-11.1,0-6.9.5-12.3.5-18.5,0-6.6-1.4-9.3-7-9.3h-2.7V16.7H267c8.1,0,11.9,3,11.9,13.6,0,7.4-.9,12.8-.9,19.8,0,3.9,1.9,7.8,8.8,7.9v5.3c-6.9.1-8.8,4-8.8,8,0,6.8.9,12.2.9,19.6,0,10.6-3.8,13.6-11.9,13.6h-4.6Z" transform="translate(-13.3 -16.7)"/><rect class="cls-2" x="94.9" y="14.3" width="160.2" height="76.9"/><text class="cls-3" transform="translate(94.86 70.56)">wdl</text><polygon class="cls-4" points="12.9 51.35 0 58.85 0 73.85 12.9 81.35 25.9 73.85 25.9 58.85 12.9 51.35"/><polygon class="cls-4" points="35.9 53.29 28.71 57.44 28.71 64.08 41.7 56.64 35.9 53.29"/><polygon class="cls-4" points="41.7 26.64 28.71 34.14 28.71 49.14 41.7 56.64 54.69 49.14 54.69 34.14 41.7 26.64"/><polygon class="cls-4" points="33.09 28.7 25.9 24.55 25.9 17.91 38.89 25.35 33.09 28.7"/><polygon class="cls-4" points="12.9 2.05 0 9.55 0 24.55 12.9 32.05 25.9 24.55 25.9 9.55 12.9 2.05"/><line class="cls-2" x1="28.71" y1="34.14" x2="28.71" y2="49.14"/></svg>