<svg id="Layer_1" data-name="Layer 1" xmlns="http://www.w3.org/2000/svg" viewBox="0 0 300 120"><defs><style>.cls-1{fill:#009abf;}.cls-2{isolation:isolate;font-size:88px;fill:#333;font-family:Courier;}.cls-3{fill:#0a99be;}</style></defs><title>Artboard 1</title><path class="cls-1" d="M90.2,90.9c0-7.4.9-12.8.9-19.6,0-4-1.9-7.9-8.8-8V58c6.9-.1,8.8-4,8.8-7.9,0-7-.9-12.4-.9-19.8,0-10.6,3.8-13.6,11.9-13.6h4.6v4.8H104c-5.5,0-7,2.7-7,9.3,0,6.2.5,11.5.5,18.5,0,6.6-1.7,9.9-6.1,11.1v.4c4.4,1.2,6.1,4.6,6.1,11.1,0,7-.5,12.3-.5,18.5,0,6.6,1.4,9.3,7,9.3h2.7v4.8h-4.6C94.2,104.5,90.2,101.4,90.2,90.9Z"/><path class="cls-1" d="M262.4,99.7h2.7c5.5,0,7-2.7,7-9.3,0-6.2-.5-11.5-.5-18.5,0-6.5,1.7-9.9,6.1-11.1v-.4c-4.4-1.2-6.1-4.5-6.1-11.1,0-6.9.5-12.3.5-18.5,0-6.6-1.4-9.3-7-9.3h-2.7V16.7H267c8.1,0,11.9,3,11.9,13.6,0,7.4-.9,12.8-.9,19.8,0,3.9,1.9,7.8,8.8,7.9v5.3c-6.9.1-8.8,4-8.8,8,0,6.8.9,12.2.9,19.6,0,10.6-3.8,13.6-11.9,13.6h-4.6Z"/><text class="cls-2" transform="translate(108.16 87.26)">wdl</text><polygon class="cls-3" points="26.2 69.65 13.3 77.15 13.3 92.15 26.2 99.65 39.2 92.15 39.2 77.15 26.2 69.65"/><polygon class="cls-3" points="55 44.94 42.01 52.44 42.01 67.44 49.2 71.59 42.01 75.74 42.01 82.38 55 74.94 67.99 67.44 67.99 52.44 55 44.94"/><polygon class="cls-3" points="52.19 43.65 39.2 36.21 39.2 27.85 26.2 20.35 13.3 27.85 13.3 42.85 26.2 50.35 39.2 42.85 46.39 47 52.19 43.65"/></svg>