<svg id="Layer_1" data-name="Layer 1" xmlns="http://www.w3.org/2000/svg" viewBox="0 0 300 123.27"><defs><style>.cls-1{fill:#262626;}.cls-2{fill:#009abf;}.cls-3{isolation:isolate;font-size:88px;fill:#e5e5e5;font-family:Courier;}.cls-4{fill:#0a99be;}.cls-5{fill:none;}</style></defs><title>wdl-logo-invert</title><rect class="cls-1" width="300" height="120"/><path class="cls-2" d="M90.2,90.9c0-7.4.9-12.8.9-19.6,0-4-1.9-7.9-8.8-8V58c6.9-.1,8.8-4,8.8-7.9,0-7-.9-12.4-.9-19.8,0-10.6,3.8-13.6,11.9-13.6h4.6v4.8H104c-5.5,0-7,2.7-7,9.3,0,6.2.5,11.5.5,18.5,0,6.6-1.7,9.9-6.1,11.1v.4c4.4,1.2,6.1,4.6,6.1,11.1,0,7-.5,12.3-.5,18.5,0,6.6,1.4,9.3,7,9.3h2.7v4.8h-4.6C94.2,104.5,90.2,101.4,90.2,90.9Z"/><path class="cls-2" d="M262.4,99.7h2.7c5.5,0,7-2.7,7-9.3,0-6.2-.5-11.5-.5-18.5,0-6.5,1.7-9.9,6.1-11.1v-.4c-4.4-1.2-6.1-4.5-6.1-11.1,0-6.9.5-12.3.5-18.5,0-6.6-1.4-9.3-7-9.3h-2.7V16.7H267c8.1,0,11.9,3,11.9,13.6,0,7.4-.9,12.8-.9,19.8,0,3.9,1.9,7.8,8.8,7.9v5.3c-6.9.1-8.8,4-8.8,8,0,6.8.9,12.2.9,19.6,0,10.6-3.8,13.6-11.9,13.6h-4.6Z"/><text class="cls-3" transform="translate(108.16 87.26)">wdl</text><polygon class="cls-4" points="26.2 68.05 13.3 75.55 13.3 90.55 26.2 98.05 39.2 90.55 39.2 75.55 26.2 68.05"/><polygon class="cls-4" points="49.2 69.99 42.01 74.14 42.01 80.78 55 73.34 49.2 69.99"/><polygon class="cls-4" points="55 43.34 42.01 50.84 42.01 65.84 55 73.34 67.99 65.84 67.99 50.84 55 43.34"/><polygon class="cls-4" points="46.39 45.4 39.2 41.25 39.2 34.61 52.19 42.05 46.39 45.4"/><polygon class="cls-4" points="26.2 18.75 13.3 26.25 13.3 41.25 26.2 48.75 39.2 41.25 39.2 26.25 26.2 18.75"/><line class="cls-5" x1="42.01" y1="50.84" x2="42.01" y2="65.84"/></svg>