<svg id="Layer_1" data-name="Layer 1" xmlns="http://www.w3.org/2000/svg" viewBox="0 0 273.5 106.57"><defs><style>.cls-1{fill:#009abf;}.cls-2{fill:none;}.cls-3{isolation:isolate;font-size:88px;fill:#e5e5e5;font-family:Courier;}</style></defs><title>wdl-invert</title><polygon class="cls-1" points="12.9 2.3 0 9.8 0 24.8 12.9 32.3 25.9 24.8 25.9 9.8 12.9 2.3"/><polygon class="cls-1" points="41.7 26.7 28.7 34.2 28.7 49.2 41.7 56.7 54.7 49.2 54.7 34.2 41.7 26.7"/><polygon class="cls-1" points="12.9 51.6 0 59.1 0 74.1 12.9 81.6 25.9 74.1 25.9 59.1 12.9 51.6"/><path class="cls-1" d="M90.2,90.9c0-7.4.9-12.8.9-19.6,0-4-1.9-7.9-8.8-8V58c6.9-.1,8.8-4,8.8-7.9,0-7-.9-12.4-.9-19.8,0-10.6,3.8-13.6,11.9-13.6h4.6v4.8H104c-5.5,0-7,2.7-7,9.3,0,6.2.5,11.5.5,18.5,0,6.6-1.7,9.9-6.1,11.1v.4c4.4,1.2,6.1,4.6,6.1,11.1,0,7-.5,12.3-.5,18.5,0,6.6,1.4,9.3,7,9.3h2.7v4.8h-4.6C94.2,104.5,90.2,101.4,90.2,90.9Z" transform="translate(-13.3 -16.7)"/><path class="cls-1" d="M262.4,99.7h2.7c5.5,0,7-2.7,7-9.3,0-6.2-.5-11.5-.5-18.5,0-6.5,1.7-9.9,6.1-11.1v-.4c-4.4-1.2-6.1-4.5-6.1-11.1,0-6.9.5-12.3.5-18.5,0-6.6-1.4-9.3-7-9.3h-2.7V16.7H267c8.1,0,11.9,3,11.9,13.6,0,7.4-.9,12.8-.9,19.8,0,3.9,1.9,7.8,8.8,7.9v5.3c-6.9.1-8.8,4-8.8,8,0,6.8.9,12.2.9,19.6,0,10.6-3.8,13.6-11.9,13.6h-4.6Z" transform="translate(-13.3 -16.7)"/><rect class="cls-2" x="94.9" y="14.3" width="160.2" height="76.9"/><text class="cls-3" transform="translate(94.86 70.56)">wdl</text><polygon class="cls-1" points="39.2 25.5 25.9 16.6 25.9 24.8 32.6 29.3 39.2 25.5"/><polygon class="cls-1" points="32.4 54.9 25.9 59.1 25.9 67.3 39.1 58.7 32.4 54.9"/></svg>