<svg id="Layer_1" data-name="Layer 1" xmlns="http://www.w3.org/2000/svg" viewBox="0 0 54.7 77.1"><defs><style>.cls-1{fill:#0e9bbf;}</style></defs><title>wdl2-icon</title><polygon class="cls-1" points="12.9 0 0 7.5 0 22.5 12.9 30 25.9 22.5 25.9 7.5 12.9 0"/><polygon class="cls-1" points="41.7 23.2 28.7 30.7 28.7 45.7 41.7 53.2 54.7 45.7 54.7 30.7 41.7 23.2"/><polygon class="cls-1" points="12.9 47.1 0 54.6 0 69.6 12.9 77.1 25.9 69.6 25.9 54.6 12.9 47.1"/><polygon class="cls-1" points="31.5 50.9 28.7 52.9 28.7 61.9 38.8 55.1 31.5 50.9"/><polygon class="cls-1" points="38.8 21.8 28.7 15 28.7 24 31.5 26.1 38.8 21.8"/></svg>